<svg xmlns="http://www.w3.org/2000/svg" width="420" height="480" viewBox="0 0 420 480" role="img" aria-label="angry-cute duck mascot">
  <defs>
    <linearGradient id="body" x1="0" y1="0" x2="1" y2="1">
      <stop offset="0%" stop-color="#fde68a"/>
      <stop offset="55%" stop-color="#fbbf24"/>
      <stop offset="100%" stop-color="#d97706"/>
    </linearGradient>
    <linearGradient id="beak" x1="0" y1="0" x2="1" y2="0">
      <stop offset="0%" stop-color="#fb7185"/>
      <stop offset="100%" stop-color="#e11d48"/>
    </linearGradient>
    <linearGradient id="screen" x1="0" y1="0" x2="0" y2="1">
      <stop offset="0%" stop-color="#67e8f9"/>
      <stop offset="100%" stop-color="#0ea5e9"/>
    </linearGradient>
    <radialGradient id="glow" cx="50%" cy="40%" r="55%">
      <stop offset="0%" stop-color="#22d3ee" stop-opacity="0.35"/>
      <stop offset="100%" stop-color="#020617" stop-opacity="0"/>
    </radialGradient>
    <filter id="soft" x="-20%" y="-20%" width="140%" height="140%">
      <feGaussianBlur stdDeviation="2" result="b"/>
      <feMerge><feMergeNode in="b"/><feMergeNode in="SourceGraphic"/></feMerge>
    </filter>
  </defs>

  <rect width="420" height="480" fill="transparent"/>
  <circle cx="210" cy="220" r="170" fill="url(#glow)"/>

  <g filter="url(#soft)">
    <animateTransform attributeName="transform" type="translate" values="0 0; 0 -10; 0 0" dur="2.8s" repeatCount="indefinite"/>

    <!-- shadow -->
    <ellipse cx="210" cy="400" rx="95" ry="16" fill="#0f172a" opacity="0.25">
      <animate attributeName="rx" values="95;85;95" dur="2.8s" repeatCount="indefinite"/>
      <animate attributeName="opacity" values="0.25;0.15;0.25" dur="2.8s" repeatCount="indefinite"/>
    </ellipse>

    <!-- body -->
    <ellipse cx="200" cy="300" rx="110" ry="85" fill="url(#body)"/>
    <ellipse cx="225" cy="318" rx="55" ry="42" fill="#fef3c7" opacity="0.5"/>

    <!-- wing -->
    <ellipse cx="140" cy="295" rx="42" ry="32" fill="#fcd34d">
      <animateTransform attributeName="transform" type="rotate" values="-10 140 295; 14 140 295; -10 140 295" dur="1.2s" repeatCount="indefinite"/>
    </ellipse>

    <!-- head -->
    <circle cx="250" cy="195" r="72" fill="url(#body)"/>
    <ellipse cx="230" cy="175" rx="28" ry="18" fill="#fef9c3" opacity="0.55"/>

    <!-- angry brow -->
    <path d="M210 165 Q245 148 280 168" fill="none" stroke="#0f172a" stroke-width="7" stroke-linecap="round"/>

    <!-- eye -->
    <circle cx="275" cy="195" r="18" fill="#fff"/>
    <circle cx="280" cy="195" r="9" fill="#0f172a"/>
    <circle cx="284" cy="191" r="3" fill="#fff"/>

    <!-- cheek -->
    <circle cx="230" cy="215" r="12" fill="#fda4af" opacity="0.8"/>

    <!-- beak -->
    <path d="M315 205 L385 218 L315 240 Z" fill="url(#beak)"/>
    <ellipse cx="330" cy="218" rx="7" ry="5" fill="#9f1239" opacity="0.35"/>

    <!-- laptop -->
    <rect x="115" y="340" width="140" height="16" rx="3" fill="#1e293b"/>
    <rect x="135" y="275" width="115" height="72" rx="6" fill="#0f172a" stroke="#334155" stroke-width="3"/>
    <rect x="145" y="285" width="95" height="52" rx="3" fill="url(#screen)">
      <animate attributeName="opacity" values="0.7;1;0.7" dur="2s" repeatCount="indefinite"/>
    </rect>
    <text x="158" y="318" font-family="ui-monospace, SFMono-Regular, Menlo, monospace" font-size="16" font-weight="700" fill="#042f2e">&gt; ship_</text>
  </g>
</svg>
