<svg xmlns="http://www.w3.org/2000/svg" width="168" height="48" viewBox="0 0 168 48" role="img" aria-label="SoundCloud">
  <rect x="4" y="6" width="162" height="40" rx="5" fill="#000000" opacity="0.5"/>
  <rect x="2" y="2" width="162" height="40" rx="5" fill="#0f172a" stroke="#475569" stroke-width="1.5"/>
  <rect x="2" y="2" width="162" height="16" rx="5" fill="#1e293b"/>
  <rect x="2" y="14" width="162" height="28" fill="#0f172a"/>
  <rect x="2" y="38" width="162" height="4" rx="5" fill="#0f172a"/>
  <rect x="66" y="0" width="36" height="8" rx="1" fill="#7c2d12" transform="rotate(-1.5 84 4)"/>
  <circle cx="24" cy="22" r="11" fill="#FF5500"/>
  <rect x="15.5" y="20" width="1.5" height="6" rx="0.5" fill="#ffffff" opacity="0.9"/>
  <rect x="18" y="17.5" width="1.5" height="8.5" rx="0.5" fill="#ffffff"/>
  <rect x="20.5" y="15.5" width="1.5" height="10.5" rx="0.5" fill="#ffffff"/>
  <rect x="23" y="16.5" width="1.5" height="9.5" rx="0.5" fill="#ffffff"/>
  <rect x="25.5" y="18" width="1.5" height="8" rx="0.5" fill="#ffffff"/>
  <rect x="28" y="19.5" width="1.5" height="6.5" rx="0.5" fill="#ffffff" opacity="0.9"/>
  <path d="M29.2 22.2c0-1.5 1.1-2.7 2.5-2.7.3-1.1 1.3-2 2.5-2 1.4 0 2.6 1.1 2.6 2.6v4h-7.6v-1.9z" fill="#ffffff"/>
  <text x="46" y="27" font-family="ui-monospace, SFMono-Regular, Menlo, monospace" font-size="13" font-weight="600" fill="#e2e8f0">SoundCloud</text>
</svg>
