<svg xmlns="http://www.w3.org/2000/svg" width="148" height="48" viewBox="0 0 148 48" role="img" aria-label="Facebook">
  <rect x="4" y="6" width="142" height="40" rx="5" fill="#000000" opacity="0.5"/>
  <rect x="2" y="2" width="142" height="40" rx="5" fill="#0f172a" stroke="#475569" stroke-width="1.5"/>
  <rect x="2" y="2" width="142" height="16" rx="5" fill="#1e293b"/>
  <rect x="2" y="14" width="142" height="28" rx="0" fill="#0f172a"/>
  <rect x="2" y="38" width="142" height="4" rx="5" fill="#0f172a"/>
  <rect x="56" y="0" width="36" height="8" rx="1" fill="#1e3a8a" transform="rotate(-2 74 4)"/>
  <circle cx="24" cy="22" r="11" fill="#1877F2"/>
  <path d="M26.5 22.8h-1.7v6.4h-2.7v-6.4h-1.3v-2.2h1.3v-1.4c0-1.8.9-2.8 2.8-2.8h1.7v2.2h-1c-.8 0-1 .4-1 1v.8h2.1l-.2 2.4z" fill="#ffffff"/>
  <text x="44" y="27" font-family="ui-monospace, SFMono-Regular, Menlo, monospace" font-size="13" font-weight="600" fill="#e2e8f0">Facebook</text>
</svg>
