<svg xmlns="http://www.w3.org/2000/svg" width="166" height="44" viewBox="0 0 166 44" role="img" aria-label="SoundCloud">
  <defs>
    <linearGradient id="bg" x1="0" y1="0" x2="0" y2="1">
      <stop offset="0%" stop-color="#1e293b"/>
      <stop offset="100%" stop-color="#0f172a"/>
    </linearGradient>
    <linearGradient id="edge" x1="0" y1="0" x2="1" y2="1">
      <stop offset="0%" stop-color="#fb923c" stop-opacity="0.55"/>
      <stop offset="100%" stop-color="#FF5500" stop-opacity="0.9"/>
    </linearGradient>
    <filter id="glow" x="-20%" y="-40%" width="140%" height="180%">
      <feDropShadow dx="0" dy="0" stdDeviation="2.2" flood-color="#FF5500" flood-opacity="0.4"/>
    </filter>
  </defs>
  <rect x="1" y="1" width="164" height="42" rx="12" fill="url(#bg)" stroke="url(#edge)" stroke-width="1.5"/>
  <rect x="1" y="1" width="164" height="20" rx="12" fill="#fff" opacity="0.03"/>
  <g filter="url(#glow)">
    <circle cx="24" cy="22" r="12" fill="#FF5500"/>
    <!-- waveform bars -->
    <rect x="15" y="20" width="1.6" height="6" rx="0.6" fill="#fff" opacity="0.9"/>
    <rect x="17.6" y="17.5" width="1.6" height="8.5" rx="0.6" fill="#fff"/>
    <rect x="20.2" y="15.5" width="1.6" height="10.5" rx="0.6" fill="#fff"/>
    <rect x="22.8" y="16.5" width="1.6" height="9.5" rx="0.6" fill="#fff"/>
    <rect x="25.4" y="18" width="1.6" height="8" rx="0.6" fill="#fff"/>
    <rect x="28" y="19.5" width="1.6" height="6.5" rx="0.6" fill="#fff" opacity="0.9"/>
    <!-- cloud bump -->
    <path d="M29.5 22.5c0-1.6 1.2-2.9 2.7-2.9.3-1.2 1.4-2.1 2.7-2.1 1.5 0 2.8 1.2 2.8 2.8v4.2h-8.2v-2z" fill="#fff"/>
  </g>
  <text x="46" y="27" font-family="ui-monospace, SFMono-Regular, Menlo, monospace" font-size="13" font-weight="600" fill="#e2e8f0" letter-spacing="0.3">SoundCloud</text>
</svg>
