<svg xmlns="http://www.w3.org/2000/svg" width="148" height="48" viewBox="0 0 148 48" role="img" aria-label="Facebook">
  <defs>
    <linearGradient id="paper" x1="0" y1="0" x2="0" y2="1">
      <stop offset="0%" stop-color="#1e293b"/>
      <stop offset="100%" stop-color="#0f172a"/>
    </linearGradient>
  </defs>
  <!-- shadow -->
  <rect x="4" y="6" width="142" height="40" rx="5" fill="#000" opacity="0.45"/>
  <!-- dark paper -->
  <rect x="2" y="2" width="142" height="40" rx="5" fill="url(#paper)" stroke="#334155" stroke-width="1.2"/>
  <!-- edge highlight (paper lip) -->
  <rect x="3" y="3" width="140" height="1.5" rx="1" fill="#475569" opacity="0.5"/>
  <!-- washi tape -->
  <rect x="56" y="0" width="36" height="8" rx="1" fill="#1d4ed8" opacity="0.55" transform="rotate(-2 74 4)"/>
  <rect x="56" y="0" width="36" height="8" rx="1" fill="none" stroke="#60a5fa" stroke-opacity="0.35" transform="rotate(-2 74 4)"/>
  <!-- brand -->
  <circle cx="24" cy="22" r="11" fill="#1877F2"/>
  <path d="M26.5 22.8h-1.7v6.4h-2.7v-6.4h-1.3v-2.2h1.3v-1.4c0-1.8.9-2.8 2.8-2.8h1.7v2.2h-1c-.8 0-1 .4-1 1v.8h2.1l-.2 2.4z" fill="#fff"/>
  <text x="44" y="27" font-family="ui-monospace, SFMono-Regular, Menlo, monospace" font-size="13" font-weight="600" fill="#e2e8f0">Facebook</text>
</svg>
