<svg xmlns="http://www.w3.org/2000/svg" width="168" height="48" viewBox="0 0 168 48" role="img" aria-label="SoundCloud">
  <rect x="4" y="5" width="162" height="40" rx="4" fill="#0f172a" opacity="0.28"/>
  <rect x="2" y="2" width="162" height="40" rx="4" fill="#ffedd5" stroke="#e7e5e4" stroke-width="1"/>
  <rect x="2" y="2" width="162" height="14" rx="4" fill="#fff7ed" opacity="0.8"/>
  <rect x="66" y="0" width="36" height="8" rx="1" fill="#fdba74" opacity="0.75" transform="rotate(-1.5 84 4)"/>
  <circle cx="24" cy="22" r="11" fill="#FF5500"/>
  <rect x="15.5" y="20" width="1.5" height="6" rx="0.5" fill="#fff" opacity="0.9"/>
  <rect x="18" y="17.5" width="1.5" height="8.5" rx="0.5" fill="#fff"/>
  <rect x="20.5" y="15.5" width="1.5" height="10.5" rx="0.5" fill="#fff"/>
  <rect x="23" y="16.5" width="1.5" height="9.5" rx="0.5" fill="#fff"/>
  <rect x="25.5" y="18" width="1.5" height="8" rx="0.5" fill="#fff"/>
  <rect x="28" y="19.5" width="1.5" height="6.5" rx="0.5" fill="#fff" opacity="0.9"/>
  <path d="M29.2 22.2c0-1.5 1.1-2.7 2.5-2.7.3-1.1 1.3-2 2.5-2 1.4 0 2.6 1.1 2.6 2.6v4h-7.6v-1.9z" fill="#fff"/>
  <text x="46" y="27" font-family="ui-monospace, SFMono-Regular, Menlo, monospace" font-size="13" font-weight="700" fill="#1e293b">SoundCloud</text>
</svg>
